<?xml version="1.0" encoding="UTF-8"?>
<svg version="1.1" viewBox="0 0 2048 849" width="1280" height="1280" xmlns="http://www.w3.org/2000/svg">
<path transform="translate(406,17)" d="m0 0 37 1 2 5 1 3 4 2h10l11-1 25 25 10 8 6 4-5 6-8 6-62 62-5 4-1 3 2 2v5l8-5 14-14 8-7 9-10 20-20 8-7 14-14 6-4 5 1 3 1 1-2h3l1 12v11h7 3l1 3v17l5 3h5l1 20 1 1h8l1 1v85l-3 3-7 3v12l1 8-2 10-10 2v19l-9 2-2 2v16l4 4 7 1v18l5 3h6v27l2 5 7 3 1 2v82l-4 4-6 1v14l1 11-2 4-8 5-5 7-8 7-8 8-6-1-10-9-48-48-8-7-12-13-8-4-1 18 69 69 10 8-1 4-11 9-12 12-3 4h-3l-1 2-5-2h-6l-1 1-1 7-3 2h-132v-8l-2-2h-11l-7-2-4-8-6-1h-3-11l-10 1-1 6-3 3-17 2-2 4 2 1-2 3-5 1h-127l-1-1-1-8-2-2-6 1-3 1-7-4-7-8-19-19-1-3 8-10 58-58h2l2-5-1-5-6-2-8 7-26 26-8 7-10 10-7 8-12 12-5-1-6-4-5-6-8-7-7-7-4-7-2-10-1-4-3-1-2-5-1-10v-83l2-8 6-7 1-7v-19l9-5 2-2v-37l-4-4-5-2-2-3-1-17v-14l-2-8-4-5-2-10-1-32v-29l1-18 8-10 1-3v-9l2-5 9-4 1-10-1-7 2-3h18l4-1 8 7 14 14 8 7 12 12 7 8 18 18 5 3h7l9-2 1-4-7-8-9-9-8-7-9-10-35-35-8-7-5-6 1-5 6-8 6-5 6-7 12 2 3-3 3-9h26l103-1 2 4 1 6 7 2 13-1h10l4 10 3 2 5-1 9-1 2 1h9l2-1 3-9 5-2 6 2h7l2-5 1-6 12-1h20l7 1 3-2 2-7 5-1zm-347 464-2 1v2h-4l-2 5 2 3 1 4 4 2 5-6 5-3-1-5-3-3zm5 14-1 4 2-4z" fill="#101010"/>
<path transform="translate(1110,62)" d="m0 0h232l25 2 22 5 16 6 17 9 14 10 11 9 12 12 9 13 9 17 6 16 5 21 1 9v12l-3 20-6 18-8 15-13 16-8 8-15 11-16 8-15 5-11 3 16 8 10 7 12 11 10 11 14 19 14 20 22 33 16 23 10 15 12 17 9 12 13 16 11 12 14 11 14 8 6 2 16 2-1 4h-72l-19-3-15-5-14-8-14-12-11-12-10-13-14-20-13-19-17-25-16-23-14-20-13-17-11-13-9-9-10-7-12-6-9-2h-52l-1 23v90l2 34 4 42 2 9 17 3 58 8 6 2-1 3h-177l-67-1 1-3 10-2 38-5 27-4 1-1 4-35 4-66 2-52 1-17v-119l-1-16-1-39-2-40-4-51-1-10-39-5-37-6-3-2zm186 6 1 2 33 6 20 6 21 11 14 11 11 10 10 13 9 16 6 15 4 14 3 20v26l-2 14-5 16-8 16-9 11-11 10-10 7-7 4v1l7-1 14-6 12-8 13-12 10-11 10-17 5-15 3-16v-30l-4-19-7-19-10-17-9-11-11-11-15-11-14-8-15-6-20-6-30-4-9-1zm-89 7-1 129v321l8 1h16l1-451zm78 6-12 2-2 5-2 16-4 55-1 19v90l1 25 1 7 4 2h58l16-3 15-5 17-9 14-11 9-10 8-14 6-16 3-15 1-12v-11l-2-18-5-17-7-16-10-16-11-12-8-8-14-10-15-8-19-7-10-2-11-1zm64 236 2 4 17 17 14 19 16 23 13 19 16 23 17 25 12 17 16 21 9 10 6 7 14 11 10 6 13 5 8 2h10l-5-4-14-10-17-17-9-11-11-14-28-40-16-23-13-19-14-20-11-14-12-13-9-8-14-8-14-6z" fill="#181818"/>
<path transform="translate(1620,61)" d="m0 0h259l24 2 19 4 16 5 16 7 10 6 12 9 10 9 9 12 9 16 7 19 5 25v33l-4 20-6 17-11 21-13 17-14 14-19 13-16 9-15 6-27 7-16 2h-42l-26-2-14-2-3-2 1-4h35l18-2 23-6 16-6 11-6 14-10 10-9 10-13 7-12 6-17 3-14 2-22-2-21-5-21-8-20-9-17-8-11-9-10-9-8-16-9-12-5-11-3-8-1h-41l-23 3-3 40-2 38-2 55v165l2 56 3 49 3 30 1 4 69 10 12 3-1 4h-246l-2-4 2-2 37-5 28-4 13-1 2-22 3-41 3-58 2-62v-110l-2-54-3-54-3-37-1-7-14-2-59-8-8-2-1-3zm218 8 2 2 26 5 19 7 13 7 10 7 13 11 10 12 10 16 8 19 5 18 2 11v47l-4 19-6 15-8 14-12 13-8 8-14 9-15 7-16 5-15 3-2 1v2h14l18-3 21-7 19-10 13-10 7-6 7-8 9-12 8-16 5-16 3-18v-33l-3-19-6-20-7-17-10-16-11-12-11-10-15-10-16-7-14-4-14-2-26-2zm-113 4-6 1-1 449 1 1h23v-451z" fill="#191919"/>
<path transform="translate(561,62)" d="m0 0h231l1 2-12 3-68 10h-8l14 43 11 31 17 43 15 36 13 30 16 37 22 51 12 26 15 31 8 15 3 6 3-1 12-25 10-19 15-33 13-30 18-43 19-45 16-38 12-30 14-37 15-43v-4l-69-8-27-4-3-2v-2h196v3l-16 4-37 8-7 2-12 22-15 31-15 34-13 31-38 90-18 43-18 42-10 24-19 45-18 43-16 42-8 22-4 7-4-5-16-42-14-35-13-30-39-91-23-53-23-54-19-44-13-29-12-25-23-46-11-20-4-4-22-4-29-6-5-2zm93 12-17 1 9 20 11 26 90 210 20 46 18 42 8 19 13 30 16 38 4-2 5-12 2-4v-7l-8-20-17-39-23-54-24-56-23-54-63-147-14-33-3-4z" fill="#141414"/>
<path transform="translate(349,106)" d="m0 0h6l10 6 14 12 18 13 7 6 9 11 8 7 2 3-1 5-8 10-6 7-7 5-7 4-4 3-7-7-3-4v-2l-4-2-11-2-1 8-6 9-37 37-8 7-17 16-10 11-4 5-8 7-5 5-6 4 6 8 9 10 1 4-11 13-5 6-14 11-6-1-10-8-10-10-18-22-13-12-8-7-5-5-17-16-4-4 1-5 11-14 12-14 4-3 6 1 10 9 10 11 7 8 10 11 8 10 8 7 15 10 5-3-2-4-14-19-8-13-1-5 8-7 9-7 6-5 6-7 9-7 4-4h2l2-4 24-24 7-8 9-10 6 2 15 11 7 2v-3l7-1 3 2-4-5-7-8-11-9-10-7-17-8-9-4 2-5 11-9 20-8z" fill="#FEFEFE"/>
<path transform="translate(181,303)" d="m0 0 6 2 7 6 4 4 6 4 7 4 8 7 4 2-1 4-14 15-5 5-17 16-13 12-11 12-84 84-1 6 4-2-1 4 54-54 10-8 4-1 3 4 1 13 2 1h-2l-2 5-14 12-5 5-9 10-10 10-8 7-8 8-8 7-9 9-2 3-1-3 8-10 58-58h2l2-5-1-5-6-2-8 7-26 26-8 7-10 10-7 8-12 12-5-1-6-4-4-4 1-2 4 2 5-6 4-2-1-7h-9l-12-22-6-16-2-9-1-9v-25l3-24 9-42 5-15 3-6h4l7 10 17 28 4 11-1 6-6 14v8l2 4h5v2l8-5 13-14 5-5 15-14 22-22 8-7 6-7 7-9 7-8zm-117 192-1 4 2-4z" fill="#FEFEFE"/>
<path transform="translate(1693,693)" d="m0 0h32l16 1 12 3 6 4 6 7 2 5v10l-5 10-8 10-6 5 2 6 18 27 9 12 5 6 4-1 4-5 8-19 13-34 11-29 3-8-9-1-2-7 1-2h16l35 1 1 4-3 3-7 2 3 12 13 37 12 31 7 14 6 1 24 1v-94l-17-5-1-5 1-1 59-1 2 2-1 5-5 2-13 1-1 94 25-4 7-3 6-16 4-3h5l-1 10-7 45-1 1h-6l-2-2v-16l-36-1h-90l-1-1v-6l5-2 8-1-2-10-9-26-2-4-27 1-4 1-9 33-1 5 11 1 2 3-1 6h-26l-4-1-7 6-4 1-10-6-11-11-7-8-10-10-7-8-11-12-11-3 1 41 13 2 3 4-2 6-55-1-1-7 5-2 12-1-1-94-15-2-1-1v-7zm19 10v43h9l11-4 7-7 3-6 1-8-3-7-8-7-8-3zm121 10-10 28-1 5 14 1h10l-3-11-7-20z" fill="#161616"/>
<path transform="translate(331,365)" d="m0 0h5l9 10 5 4 9 11 13 13 9 11 7 7 8 7 68 68 8 7 16 16-2 4-20 11-8 4-21 6-14 2h-29l-21-3-16-3-6-1-36-12-4-3v-2l15-10 12-7 12-6 10-7 4 1 8 4 10 4 1-2 4 1 1-2 7-2-3-8-9-8-8-7-9-11-23-23-8-7-11-11-11-9-11-10-4-3 10-11 7-8 8-8z" fill="#FEFEFE"/>
<path transform="translate(469,27)" d="m0 0 4 2 19 19-1 5-3-2-2 4h-2l2 9-4 6-11 12-7 8-24 24-8 7-8 8-10 7-7 4-2-3-4-2-2-3v-7l-4-6-8-7-5-6 6-7 5-5 1-7-3-1-1-3-8-1-7 1-10 7-6 1h-10l-12 4-17 8-7 3-10 7-26 15-8 6-10 8-5-1-8-7-12-11-7-8-5-5 1-4 9-6 19-10 7-6 13-6 11-7 8-2h4l1-7 12-3 12-1 1-3 9-3 22-5 3-2v-2h7l6-2 14-1h63l7 2 2 4 7 3 15 1v-4l-1-5-4-5-9-4-5-2 4-2z" fill="#FEFEFE"/>
<path transform="translate(157,39)" d="m0 0h16l33 1 9 1 11 4 11 3 10 1 13 4 7 6-1 5-4 4-17 7-14 10-8 6-4 2-7-2-8-6-8-3h-7l-2 4v6l4 6 9 9 8 7 12 14 9 10 8 7 13 12 8 7 16 15 5 6-1 4-12 13-13 12-5 3-6-1-11-10-7-8-10-11-9-11-96-96-8-7-7-7 2-4 8-7 6-3 18-6 1-5 1-1z" fill="#fff"/>
<path transform="translate(514,98)" d="m0 0 5 1 7 6 8 16 7 21 3 16v33l-4 27-6 22-8 24-3 6-7-6-9-14-14-26-2-4 1-5 4-7 2-11-2-9-8 1-11 12-9 9-8 7-10 9-14 14-9 11-15 16-8 10h-2l-1 3-5 1-10-8-14-13-6-9-2-4 1-4 11-9 10-8 17-17 8-7 14-14 7-6 7-8 7-7 8-7 47-47 8-10z" fill="#fff"/>
<path transform="translate(321,442)" d="m0 0 6 3 13 11 10 8 6 7 1 5-8 6-16 10-11 7-8 4-7 6-15 7-12 5-16 6-15 6-20 6-25 5-16 2-20 1-21-2-22-5-14-6-12-8-5-4 2-5 8-9 8-7 7-7 8-7 21-21 11-14 3-3 6 1 13 9 11 10 5 5-1 4-7 9-1 8 1 5h10l31-7 15-5 14-7 10-3 13-8 18-11 10-6z" fill="#fff"/>
<path transform="translate(470,224)" d="m0 0 4 2 7 8 7 11 7 10 14 25 8 16 9 25 11 33 5 22 2 14 1 25-2 18-4 17-6 15-10 19-3 6-6-2-10-11-9-11-35-35-11-9-3-3 1-4 9-10 9-11 6-8 5-2 12 10 8 3v-3h2l1-3v-7l-6-22-4-16-7-19-11-22-16-27-8-11-6-9 2-5 7-8 16-16z" fill="#fff"/>
<path transform="translate(61,97)" d="m0 0 5 1 6 5 9 11 10 10 7 6 7 8 25 25v2h2l-2 6-7 10-11 12h-2l-2 4-4 4-4-2-9-10-8-1-1 4v8l4 17 3 17 10 25 6 11 11 20 8 13 6 10 4 5 4 3 1 7-16 16-7 8-9 7-4-2-5-8-5-9-7-11-10-17-12-24-6-13-5-17-5-10-10-47-1-9v-35l3-16 6-19 8-16z" fill="#fff"/>
<path transform="translate(1182,692)" d="m0 0h12l5 3 13 17 11 14 9 11 11 13 10 11 9 11-2-66-1-2-13-2-3-2v-6l5-1h39l5 2-1 5-8 3-6 1-1 33-2 61-1 17-6-1-12-13-9-11-12-13-9-11-9-10-9-11-9-10-9-11-4-4 2 65v13l17 1 1 1v8h-48v-8l12-3 1-3 1-23 1-39 1-27-2-1-13-2-2-2v-6z" fill="#161616"/>
<path transform="translate(205,691)" d="m0 0h26l16 4 13 7 10 9 6 9 4 10 1 5v21l-3 12-7 14-11 12-11 8-13 5-21 3h-13l-14-2-11-4-10-6-11-11-8-16-2-6-1-7v-10l3-14 7-14 10-12 11-8 10-5 12-3zm1 11-10 2-12 7-8 9-5 11-2 9v12l3 12 7 13 9 10 11 7 8 3 6 1h11l11-4 11-8 6-9 4-11v-22l-4-13-6-10-8-9-9-6-8-3-6-1z" fill="#141414"/>
<path transform="translate(407,679)" d="m0 0 6 1 1 7-2 43-1 2-6-1-2-2-3-13-5-5-6-4-9-3-6-1h-19l-10 3-10 7-6 7-4 8-2 7v19l5 14 7 11 9 9 16 8 9 2h14l5-2 2-5v-25l-15-4-2-4 1-2 3-1h51l2 2-1 4-6 2-8 2v38l-1 2-16 3-23 2h-13l-18-2-15-5-11-7-10-10-7-12-4-12v-17l4-15 6-11 7-9 12-9 10-5 14-4 7-1h30l17 2 1-12z" fill="#171717"/>
<path transform="translate(307,302)" d="m0 0 5 2 10 9 10 8 7 7 2 3v5l-12 13-14 12-21 21-7 9-13 13-10 13-8 6-4 1-14-9-19-19-2-5 9-8 11-9 19-19 10-8 7-8 10-9 11-12 7-8 4-5z" fill="#fff"/>
<path transform="translate(1638,679)" d="m0 0 5 1 1 1-2 40-1 10-4 1-3-1-4-15-8-7-9-4-10-2h-18l-10 3-10 7-7 8-4 8-2 10v10l3 13 7 13 8 10 10 7 9 4 12 2h9l8-2 1-1 1-7v-21l-1-2-12-2-3-3 1-5h53l1 5-4 3-11 1v40l-7 3-16 2-15 1h-15l-16-2-14-4-11-6-11-10-7-11-4-11-1-7v-15l3-12 6-12 9-11 12-9 11-5 12-3 7-1h29l17 2 3-12z" fill="#151515"/>
<path transform="translate(335,238)" d="m0 0 5 4 6 10 9 10 7 8 18 18 10 8 17 17 8 7 5 6-1 6-9 14-18 18-5-2-9-9-8-10-9-10-7-7-7-8-14-14-7-8-14-11-11-11 6-10 8-8 8-7z" fill="#fff"/>
<path transform="translate(950,694)" d="m0 0h54l1 3-2 3-9 3 1 7 9 27 13 35 8 18 5 7 11 3 1 1v7l-50 1-7-2v-5l5-3 9-1-4-15-8-22-2-3-31 1-2 10-8 28 11 2 3 3-1 5-1 1h-45v-6l7-3 6-2 8-16 11-30 6-15 11-29-1-4-8-3-2-5zm19 20-7 20-4 11 1 1 12 1h11l-1-6-8-23-2-4z" fill="#151515"/>
<path transform="translate(1500,684)" d="m0 0h5l1 1-1 21-2 15-5 1-3-1-2-7-1-7-11-2-16-2-1 38h17l9-2 6-7 5 1-2 19-2 12-2 3-6-2-2-11-24-2 1 14 1 31 24-2 7-2 2-4 2-9 3-3h5l1 5-4 30-2 7h-5l-2-2-1-7-5-1-66-1-1-1v-6l5-2 12-1-1-94-15-3-3-4v-3l10-1 64-1 3-6z" fill="#191919"/>
<path transform="translate(903,681)" d="m0 0h6l1 1-1 22-2 28-1 2-6-1-2-2-2-13-7-8-10-5-8-2h-19l-9 3-10 7-6 7-5 10-2 10v11l3 12 8 13 9 9 10 6 12 4 7 1h13l16-3 10-4h4v10l-5 4-16 5-22 2h-10l-18-2-15-5-10-7-7-6-9-13-4-10-1-4v-22l5-14 6-10 7-8 11-8 12-6 11-3 7-1h30l15 1 3-10z" fill="#161616"/>
<path transform="translate(1301,683)" d="m0 0h5l2 3 1 7 14 1h72l10-1 4-9 5-1 2 1v13l-3 24-2 7-5 1-3-2-1-18-12-1-22-2v92l19 1 2 2-1 7-2 1-62-1-1-1v-6l5-2 15-1 1-92-25 2-9 2-5 15-3 2-5-1v-15l2-26z" fill="#151515"/>
<path transform="translate(450,308)" d="m0 0 6 3 4 5 5 11 8 16 3 7 1 6-4 7-7 8-8 11-9 11-9 10-7 8-10 9-1 2h2v4l3 1v7l-3 2-5-4-7-8-8-7-8-8-11-14 1-5 11-10 6-7 8-4 9-12 7-7 11-16 7-15 3-8z" fill="#fff"/>
<path transform="translate(601,683)" d="m0 0h6l2 4v6l14 1h71l12-1 4-9 6-1 1 1v13l-4 29-2 3-7-1v-19l-13-1-22-2v82l1 9 18 2 1 1v8l-5 1-58-1-3-3 1-5 14-2h6v-91h-15l-15 2-4 2-4 14-1 1h-7v-16l2-26z" fill="#171717"/>
<path transform="translate(162,159)" d="m0 0 9 3 20 20 5 8-2 5-14 12-8 8-9 11-10 10-10 15-12 22-4 4-6-7-13-27-3-11 1-10 6-8 12-11 8-10 9-10 8-8 8-14z" fill="#fff"/>
<path transform="translate(185,387)" d="m0 0 5 1 10 9 5 4 8 10 9 8 9 7 11 8 18 11 12 6-1 5-10 8-14 5-11 6-5 4-7-1-10-7-10-10-10-8-10-9-17-14-14-9 1-4 21-21 8-7z" fill="#fff"/>
<path transform="translate(580,681)" d="m0 0h6l1 1-2 26-1 14-2 6-6-1-2-5-2-11-4-5-5-3-4-1h-7l-8 4-4 7 1 5 5 6 22 15 10 8 6 8 4 10v16l-3 9-7 9-7 6-7 3-5 1h-29l-3-1-2 13-7 2-2-3 2-36 1-14 2-2 6 1 3 17 7 8 9 4h10l7-4 4-5 2-8-3-8-4-5-19-13-13-11-6-9-2-12 2-13 4-8 7-6 9-4 4-1h28l3-9z" fill="#171717"/>
<path transform="translate(49,694)" d="m0 0h61l1 5-3 2-12 2h-6v94l27-4 4-2 7-17 3-3h6l-1 11-7 43-2 2h-5l-1-1-1-17-33-1h-35l-3-2v-6l2-1 13-1 2-1v-94l-14-1-3-2z" fill="#141414"/>
<path transform="translate(493,693)" d="m0 0 6 1 1 5-5 3-9 1-2 1-1 94 14 1 3 3-1 5-1 1h-55l-3-3 2-5 13-2 2-1 1-15v-74l-1-3-15-4-2-3 1-4z" fill="#181818"/>
<path transform="translate(776,693)" d="m0 0 6 1 1 5-7 3-10 2-1 5v81l1 8 14 1 3 4-1 5h-57l-1-1v-7l16-2v-93l-5-2-11-2-1-7z" fill="#171717"/>
<path transform="translate(1085,694)" d="m0 0h58l1 1v5l-5 2-12 1-1 95 15 1 2 1v8h-57l-1-1v-6l2-2 13-2 1-3 1-19v-64l-1-6-15-4-2-2z" fill="#121212"/>
<path transform="translate(552,123)" d="m0 0 2 1 1 13 1 1h8l1 1v85l-3 3-7 3v12l1 8-2 10-10 2v19l-9 2-3 2 2-8 8-16 6-16 2-3 3-19 3-34v-17l-2-29-2-13z" fill="#FEFEFE"/>
<path transform="translate(543,324)" d="m0 0 6 3h6v27l2 5 7 3 1 2v82l-4 4h-6l2-7 3-9 2-11v-25l-2-3-3-16-2-5-2-14-2-8v-10l-4-8-3-7z" fill="#fff"/>
<path transform="translate(520,71)" d="m0 0 5 1 3 1 1-2h3l1 12h-3l-3-1-4 1-4-2-7 1-17 17-7 6-7 8-20 20-7 8-9 9-7 6h-3l-1-4 8-6 13-13 8-7 9-10 20-20 8-7 14-14z" fill="#fff"/>
<path transform="translate(492,49)" d="m0 0 16 12 4 4-16 14-59 59-5 4-1 3 2 2v5l-1-2-1 5v3h-2v-2l-5-2 2-5h3l-2-5 7-8 8-7 43-43 7-8 11-11 1-3-5-5-2-4-4-2z" fill="#fff"/>
<path transform="translate(249,546)" d="m0 0h3v8h5l-2 4-5 1h-57v-1l21-1 8 1v-2l-3-1 3-2z" fill="#fff"/>
<path transform="translate(406,17)" d="m0 0 37 1-2 5-1 2-6 1v-2l-4 1-5-3-1-2h-6l1 5h-7l3-6-4 2-4-1-3 2h-2l-7-1-1-1v3l5-1v3h-7l-5 1v-2h-3l-1 2h-4v-3h-2l-1 3 1-7 5-1z" fill="#fff"/>
<path transform="translate(309,540)" d="m0 0h7l5 2 3 3 13 4 13 3 17 5 13 1v1h-48v-8l-2-2h-11l-7-2z" fill="#fff"/>
<path transform="translate(553,230)" d="m0 0h1l2 20-2 10-10 2v19l-9 2-3 2 2-8 8-16 6-16 2-3 2-11z" fill="#fff"/>
<path transform="translate(553,456)" d="m0 0 2 3 1 17-2 4-8 5-5 7-8 7-8 8-4-1h2l2-4 5-4 6-8 7-10 8-16z" fill="#fff"/>
<path transform="translate(477,490)" d="m0 0 4 2 20 20 10 8-1 4-11 9-12 12-3 4h-3l-1 2-9-3 4-2 13-7 9-7 3-3 4-10-3-1-6-8-5-4-8-10z" fill="#fff"/>
<path transform="translate(227,27)" d="m0 0h15l2 6-5-2v2l-11-2-6-1-83-1v-1z" fill="#FCFCFC"/>
<path transform="translate(95,38)" d="m0 0 6 1 3 1v2l-17 11-8 7 1 5v3l-4-5 1-5 6-8 6-5z" fill="#fff"/>
<path transform="translate(268,539)" d="m0 0 5 1 2 3 3-3-1 5-3 3-18 2-1-5 5-1 1-3z" fill="#fff"/>
<path transform="translate(32,231)" d="m0 0 2 3 1 11 1 8 5 13 3 6-1 2-4-2-5-3-1-2-1-17z" fill="#fff"/>
<path transform="translate(45,277)" d="m0 0 3 4 3 5v9l-5 16h-1l-1-12v-15z" fill="#fff"/>
<path transform="translate(382,18)" d="m0 0h13l-1 5 5-1v3h-7l-5 1v-2h-3l-1 2h-4v-3h-2l-1 3 1-7z" fill="#F3F3F3"/>
<path transform="translate(340,27)" d="m0 0h16l3 1-1 2-7 2h-3l-5 1-5 3-2-1v-2l-2-1v4h-2l1-8z" fill="#fff"/>
<path transform="translate(282,524)" d="m0 0 9 3 8 6 11 4 1 2-9-1h-3l-10-4-7-8z" fill="#fff"/>
<path transform="translate(309,540)" d="m0 0h7l5 2 3 3 9 3v2l-3-1h-11l-7-2z" fill="#F0F0F0"/>
<path transform="translate(42,315)" d="m0 0v3l-7 14 1 4-1 5-2-2v-19z" fill="#fff"/>
<path transform="translate(406,17)" d="m0 0h7l5 1 1 7h-7l3-6-4 2-4-1-3 2h-2l-7-1v-3z" fill="#fff"/>
<path transform="translate(459,547)" d="m0 0 1 3-1 6 3-1v3l2 1h-12l1-2-1-6z" fill="#fff"/>
<path transform="translate(559,168)" d="m0 0h2l1 10 1 5-3 22h-1z" fill="#0F0F0F"/>
<path transform="translate(113,28)" d="m0 0h11l10 1v1l-10 2-10 3-3 1 1-5z" fill="#fff"/>
<path transform="translate(31,348)" d="m0 0 1 2-5 16-2 12h-1v-17l2-8z" fill="#fff"/>
<path transform="translate(535,305)" d="m0 0 9 1-1 16-2-3v-9h-2l1 3h-3l-2-4z" fill="#fff"/>
<path transform="translate(134,148)" d="m0 0 6 3h7l4-1 2 2-4 4-5 1-9-6z" fill="#fff"/>
<path transform="translate(46,83)" d="m0 0 12 1-3 2-8 7h-2l-1-7z" fill="#fff"/>
<path transform="translate(213,316)" d="m0 0 4 2 4 7v3l-5-2-5-4z" fill="#fff"/>
<path transform="translate(260,42)" d="m0 0 7 1 7 2 1 5-8-2-6-4z" fill="#fff"/>
<path transform="translate(260,38)" d="m0 0h15l1 4-6 1-10-4z" fill="#fff"/>
<path transform="translate(122,552)" d="m0 0 10 5 6 1v1h-15l-1-1z" fill="#fff"/>
<path transform="translate(316,37)" d="m0 0 7 2 3 1v2l-5 1-1-3h-4l-1 3-5 3 2-7z" fill="#fff"/>
<path transform="translate(24,206)" d="m0 0h1l4 16 2 6-5-5-2-10z" fill="#fff"/>
<path transform="translate(292,48)" d="m0 0 6 1 3 2-8 1-1 2-4-4z" fill="#E5E5E5"/>
<path transform="translate(415,18)" d="m0 0h3l1 7h-7l2-4z" fill="#F7F7F7"/>
<path transform="translate(28,129)" d="m0 0 1 2-4 13h-1v-10z" fill="#fff"/>
<path transform="translate(144,440)" d="m0 0 1 2-2-1z" fill="#fff"/>
<path transform="translate(512,70)" d="m0 0 2 1-2 1z" fill="#fff"/>
<path transform="translate(64,483)" d="m0 0" fill="#fff"/>
<path transform="translate(329,556)" d="m0 0" fill="#fff"/>
<path transform="translate(329,552)" d="m0 0" fill="#fff"/>
<path transform="translate(514,69)" d="m0 0" fill="#fff"/>
</svg>
