<?xml version="1.0" encoding="utf-8"?>
<!-- Generator: Adobe Illustrator 19.2.0, SVG Export Plug-In . SVG Version: 6.00 Build 0)  -->
<svg version="1.1" id="internet" xmlns="http://www.w3.org/2000/svg" xmlns:xlink="http://www.w3.org/1999/xlink" x="0px" y="0px"
	 viewBox="0 0 200 233.9374" enable-background="new 0 0 200 233.9374" xml:space="preserve">
<g>
	<path fill="none" d="M96,108.9686V57.375c-16.0489,3.0724-28.9089,24.3852-31.4877,51.5936H96z"/>
	<path fill="none" d="M96,180.5622v-63.5936H64.0587c-0.0124,0.67-0.0587,1.3248-0.0587,2C64,150.8254,78.0259,177.1214,96,180.5622
		z"/>
	<path fill="none" d="M104,180.5622c17.9739-3.4408,32-29.7368,32-61.5936c0-0.6752-0.0465-1.33-0.0589-2H104V180.5622z"/>
	<path fill="none" d="M143.5207,108.9686h19.9236c-3.134-24.9672-20.6608-45.5064-44.022-52.9668
		C132.3015,65.8698,141.4755,85.337,143.5207,108.9686z"/>
	<path fill="none" d="M104,57.375v51.5936h31.4875C132.9087,81.7602,120.0487,60.4474,104,57.375z"/>
	<path fill="none" d="M144,118.9686c0,23.31-6.848,43.5556-17.5509,56.2088C148.5627,165.0874,164,142.8198,164,116.9686h-20.0617
		C143.9499,117.6398,144,118.2922,144,118.9686z"/>
	<path fill="none" d="M56.4791,108.9686c2.0452-23.6316,11.2192-43.0988,24.0984-52.9668
		c-23.3612,7.4604-40.888,27.9996-44.022,52.9668H56.4791z"/>
	<path fill="none" d="M56,118.9686c0-0.6764,0.0499-1.3288,0.0615-2H36c0,25.8508,15.4371,48.1188,37.5503,58.2088
		C62.8475,162.5246,56,142.2786,56,118.9686z"/>
	<path d="M104,45.1714v-0.2028h-8v0.2028c-37.8357,2.0944-68,33.448-68,71.7972c0,39.6992,32.3007,72,72,72
		c39.6991,0,72-32.3008,72-72C172,78.6194,141.8355,47.2658,104,45.1714z M163.4443,108.9686h-19.9236
		c-2.0452-23.6316-11.2192-43.0988-24.0984-52.9668C142.7835,63.4622,160.3103,84.0014,163.4443,108.9686z M136,118.9686
		c0,31.8568-14.0261,58.1528-32,61.5936v-63.5936h31.9411C135.9535,117.6386,136,118.2934,136,118.9686z M64.0587,116.9686H96
		v63.5936c-17.9741-3.4408-32-29.7368-32-61.5936C64,118.2934,64.0463,117.6386,64.0587,116.9686z M96,57.375v51.5936H64.5123
		C67.0911,81.7602,79.9511,60.4474,96,57.375z M104,108.9686V57.375c16.0487,3.0724,28.9087,24.3852,31.4875,51.5936H104z
		 M80.5775,56.0018c-12.8792,9.868-22.0532,29.3352-24.0984,52.9668H36.5555C39.6895,84.0014,57.2163,63.4622,80.5775,56.0018z
		 M36,116.9686h20.0615c-0.0116,0.6712-0.0615,1.3236-0.0615,2c0,23.31,6.8475,43.556,17.5503,56.2088
		C51.4371,165.0874,36,142.8194,36,116.9686z M126.4491,175.1774C137.152,162.5242,144,142.2786,144,118.9686
		c0-0.6764-0.0501-1.3288-0.0617-2H164C164,142.8198,148.5627,165.0874,126.4491,175.1774z"/>
	<path d="M100.6703,16.9858l10.1577-10.158c1.5627-1.5624,1.5627-4.0936,0-5.656c-1.5625-1.5624-4.0937-1.5624-5.656,0
		L88.2031,18.1406c-1.5624,1.5624-1.5624,4.0936,0,5.656l16.9689,16.9688c0.7811,0.7812,1.8043,1.172,2.828,1.172
		c1.0235,0,2.0467-0.3908,2.828-1.172c1.5627-1.5624,1.5627-4.0936,0-5.656l-10.1229-10.1228
		C151.1107,25.3686,192,66.4746,192,116.9686c0,2.2108,1.7891,4,4,4c2.2107,0,4-1.7892,4-4
		C200,62.053,155.5019,17.3494,100.6703,16.9858z"/>
	<path d="M94.828,193.1718c-1.5625-1.5624-4.0937-1.5624-5.656,0c-1.5629,1.5624-1.5629,4.0936,0,5.656l10.1227,10.1228
		C48.8891,208.5686,8,167.4626,8,116.9686c0-2.2108-1.7893-4-4-4c-2.2109,0-4,1.7892-4,4c0,54.9156,44.4979,99.6192,99.3295,99.9828
		l-10.1575,10.158c-1.5629,1.5624-1.5629,4.0936,0,5.656c0.7811,0.7812,1.8043,1.172,2.828,1.172
		c1.0235,0,2.0467-0.3908,2.828-1.172l16.9687-16.9688c1.5624-1.5624,1.5624-4.0936,0-5.656L94.828,193.1718z"/>
</g>
</svg>
